<svg width="22" height="21" viewBox="0 0 22 21" fill="none" xmlns="http://www.w3.org/2000/svg">
<path d="M19.6429 0H2.35714C1.73199 0 1.13244 0.237053 0.690391 0.65901C0.248341 1.08097 0 1.65326 0 2.25L0 18.75C0 19.3467 0.248341 19.919 0.690391 20.341C1.13244 20.7629 1.73199 21 2.35714 21H9.0971V13.8605H6.00335V10.5H9.0971V7.93875C9.0971 5.02547 10.9141 3.41625 13.697 3.41625C15.0297 3.41625 16.4234 3.64313 16.4234 3.64313V6.5025H14.8878C13.3748 6.5025 12.9029 7.39875 12.9029 8.31797V10.5H16.2805L15.7403 13.8605H12.9029V21H19.6429C20.268 21 20.8676 20.7629 21.3096 20.341C21.7517 19.919 22 19.3467 22 18.75V2.25C22 1.65326 21.7517 1.08097 21.3096 0.65901C20.8676 0.237053 20.268 0 19.6429 0Z" fill="#CDCDCD"/>
</svg>
