<svg width="22" height="21" viewBox="0 0 22 21" fill="none" xmlns="http://www.w3.org/2000/svg">
<path d="M18.4441 17.6859C18.4441 18.0047 18.2684 18.2344 18.0163 18.2344C17.7566 18.2344 17.5885 17.9906 17.5885 17.6859C17.5885 17.3812 17.7566 17.1375 18.0163 17.1375C18.2684 17.1375 18.4441 17.3812 18.4441 17.6859ZM6.57326 17.1375C6.30208 17.1375 6.14549 17.3812 6.14549 17.6859C6.14549 17.9906 6.30208 18.2344 6.57326 18.2344C6.82153 18.2344 6.98958 18.0047 6.98958 17.6859C6.98576 17.3812 6.82153 17.1375 6.57326 17.1375ZM11.0611 17.1234C10.8549 17.1234 10.7288 17.2875 10.6983 17.5312H11.4278C11.3934 17.2641 11.2597 17.1234 11.0611 17.1234ZM15.1785 17.1375C14.9187 17.1375 14.7622 17.3812 14.7622 17.6859C14.7622 17.9906 14.9187 18.2344 15.1785 18.2344C15.4382 18.2344 15.6062 18.0047 15.6062 17.6859C15.6062 17.3812 15.4382 17.1375 15.1785 17.1375ZM19.2233 18.3609C19.2233 18.375 19.2347 18.3844 19.2347 18.4125C19.2347 18.4266 19.2233 18.4359 19.2233 18.4641C19.2118 18.4781 19.2118 18.4875 19.2042 18.5016C19.1927 18.5156 19.1851 18.525 19.1622 18.525C19.1507 18.5391 19.1431 18.5391 19.1201 18.5391C19.1087 18.5391 19.101 18.5391 19.0781 18.525C19.0667 18.525 19.059 18.5109 19.0476 18.5016C19.0361 18.4875 19.0285 18.4781 19.0285 18.4641C19.017 18.4406 19.017 18.4266 19.017 18.4125C19.017 18.3891 19.017 18.375 19.0285 18.3609C19.0285 18.3375 19.0399 18.3234 19.0476 18.3094C19.059 18.2953 19.0667 18.2953 19.0781 18.2859C19.0972 18.2719 19.1087 18.2719 19.1201 18.2719C19.1392 18.2719 19.1507 18.2719 19.1622 18.2859C19.1812 18.3 19.1927 18.3 19.2042 18.3094C19.2156 18.3188 19.2118 18.3375 19.2233 18.3609ZM19.1392 18.4266C19.1583 18.4266 19.1583 18.4125 19.1698 18.4125C19.1812 18.3984 19.1812 18.3891 19.1812 18.375C19.1812 18.3609 19.1812 18.3516 19.1698 18.3375C19.1583 18.3375 19.1507 18.3234 19.1278 18.3234H19.0667V18.4875H19.0972V18.4219H19.1087L19.1507 18.4875H19.1812L19.1392 18.4266ZM22 2.25V18.75C22 19.9922 21.1788 21 20.1667 21H1.83333C0.821181 21 0 19.9922 0 18.75V2.25C0 1.00781 0.821181 0 1.83333 0H20.1667C21.1788 0 22 1.00781 22 2.25ZM2.44444 8.79375C2.44444 12.3797 4.81632 15.2859 7.73438 15.2859C8.77326 15.2859 9.79306 14.9016 10.6562 14.2031C7.87187 11.4234 7.89097 6.17812 10.6562 3.39844C9.79306 2.69531 8.77326 2.31563 7.73438 2.31563C4.81632 2.31094 2.44444 5.22188 2.44444 8.79375ZM11 13.8937C13.6927 11.3156 13.6812 6.29063 11 3.69844C8.31875 6.29063 8.30729 11.3203 11 13.8937ZM5.56493 17.4703C5.56493 17.0625 5.34722 16.7953 5.00347 16.7812C4.82778 16.7812 4.64062 16.8469 4.51458 17.0859C4.42292 16.8937 4.26632 16.7812 4.04861 16.7812C3.90347 16.7812 3.75833 16.8469 3.64375 17.0344V16.8281H3.33056V18.5484H3.64375C3.64375 17.6625 3.54826 17.1328 3.9875 17.1328C4.37708 17.1328 4.30069 17.6109 4.30069 18.5484H4.60243C4.60243 17.6906 4.50694 17.1328 4.94618 17.1328C5.33576 17.1328 5.25937 17.6016 5.25937 18.5484H5.57257V17.4703H5.56493ZM7.27986 16.8281H6.97812V17.0344C6.875 16.8797 6.72986 16.7812 6.53125 16.7812C6.13785 16.7812 5.83611 17.1656 5.83611 17.6859C5.83611 18.2109 6.13785 18.5906 6.53125 18.5906C6.72986 18.5906 6.875 18.5016 6.97812 18.3375V18.5531H7.27986V16.8281ZM8.82674 18.0281C8.82674 17.325 7.95208 17.6437 7.95208 17.3156C7.95208 17.0484 8.4066 17.0906 8.65868 17.2641L8.78472 16.9594C8.42569 16.6734 7.63125 16.6781 7.63125 17.3438C7.63125 18.0141 8.5059 17.7328 8.5059 18.0469C8.5059 18.3422 7.99028 18.3187 7.71528 18.0844L7.5816 18.3797C8.00937 18.7359 8.82674 18.6609 8.82674 18.0281ZM10.1788 18.4641L10.0948 18.1453C9.94965 18.2437 9.62882 18.3516 9.62882 17.9531V17.175H10.1292V16.8281H9.62882V16.3031H9.31562V16.8281H9.02535V17.1703H9.31562V17.9531C9.31562 18.7781 9.97639 18.6281 10.1788 18.4641ZM10.6868 17.8359H11.7372C11.7372 17.0766 11.4545 16.7766 11.0726 16.7766C10.6677 16.7766 10.3774 17.1469 10.3774 17.6813C10.3774 18.6422 11.2406 18.8016 11.6684 18.3469L11.5233 18.0656C11.2253 18.3656 10.7747 18.3375 10.6868 17.8359ZM12.9441 16.8281C12.7684 16.7344 12.501 16.7437 12.3635 17.0344V16.8281H12.0503V18.5484H12.3635V17.5781C12.3635 17.0344 12.7264 17.1047 12.8524 17.1844L12.9441 16.8281ZM13.349 17.6859C13.349 17.1516 13.792 16.9781 14.1396 17.2922L14.2847 16.9875C13.8417 16.5609 13.0358 16.7953 13.0358 17.6906C13.0358 18.6187 13.8913 18.8062 14.2847 18.3937L14.1396 18.0891C13.7882 18.3937 13.349 18.2109 13.349 17.6859ZM15.8965 16.8281H15.5833V17.0344C15.2663 16.5187 14.4413 16.8094 14.4413 17.6859C14.4413 18.5859 15.2969 18.8438 15.5833 18.3375V18.5531H15.8965V16.8281ZM17.1837 16.8281C17.092 16.7719 16.7635 16.6922 16.6031 17.0344V16.8281H16.3014V18.5484H16.6031V17.5781C16.6031 17.0625 16.9469 17.0953 17.092 17.1844L17.1837 16.8281ZM18.7229 16.1297H18.4212V17.0344C18.108 16.5234 17.2792 16.7953 17.2792 17.6859C17.2792 18.5953 18.1385 18.8391 18.4212 18.3375V18.5531H18.7229V16.1297ZM19.0132 12.6094V12.825H19.0438V12.6094H19.1163V12.5719H18.9406V12.6094H19.0132ZM19.2653 18.4125C19.2653 18.3891 19.2653 18.3609 19.2538 18.3375C19.2424 18.3234 19.2347 18.3 19.2233 18.2859C19.2118 18.2719 19.1927 18.2625 19.1812 18.2484C19.1622 18.2484 19.1392 18.2344 19.1201 18.2344C19.1087 18.2344 19.0896 18.2484 19.0667 18.2484C19.0476 18.2625 19.0361 18.2719 19.0247 18.2859C19.0056 18.3 18.9941 18.3234 18.9941 18.3375C18.9826 18.3609 18.9826 18.3891 18.9826 18.4125C18.9826 18.4266 18.9826 18.45 18.9941 18.4781C18.9941 18.4922 19.0056 18.5156 19.0247 18.5297C19.0361 18.5437 19.0438 18.5531 19.0667 18.5672C19.0858 18.5813 19.1087 18.5812 19.1201 18.5812C19.1392 18.5812 19.1622 18.5813 19.1812 18.5672C19.1927 18.5531 19.2118 18.5437 19.2233 18.5297C19.2347 18.5156 19.2424 18.4922 19.2538 18.4781C19.2653 18.45 19.2653 18.4266 19.2653 18.4125ZM19.3875 12.5672H19.334L19.2729 12.7313L19.2118 12.5672H19.1583V12.8203H19.1889V12.6281L19.25 12.7922H19.292L19.3455 12.6281V12.8203H19.3875V12.5672ZM19.5556 8.79375C19.5556 5.22188 17.1837 2.31094 14.2656 2.31094C13.2267 2.31094 12.2069 2.69531 11.3438 3.39375C14.0976 6.17344 14.1396 11.4328 11.3438 14.1984C12.2069 14.9016 13.2344 15.2812 14.2656 15.2812C17.1837 15.2859 19.5556 12.3797 19.5556 8.79375Z" fill="#CDCDCD"/>
</svg>
