<svg width="22" height="21" viewBox="0 0 22 21" fill="none" xmlns="http://www.w3.org/2000/svg">
<path d="M19.6429 0H2.35714C1.0558 0 0 1.00781 0 2.25V18.75C0 19.9922 1.0558 21 2.35714 21H19.6429C20.9442 21 22 19.9922 22 18.75V2.25C22 1.00781 20.9442 0 19.6429 0ZM17.2415 7.44375C17.2513 7.575 17.2513 7.71094 17.2513 7.84219C17.2513 11.9062 14.0103 16.5891 8.08795 16.5891C6.26116 16.5891 4.56696 16.0828 3.14286 15.2109C3.40313 15.2391 3.65357 15.2484 3.91875 15.2484C5.42634 15.2484 6.81116 14.7609 7.91607 13.9359C6.50179 13.9078 5.31339 13.0219 4.9058 11.8031C5.40179 11.8734 5.84866 11.8734 6.35938 11.7469C4.88616 11.4609 3.78125 10.2234 3.78125 8.72812V8.69062C4.20848 8.92031 4.70937 9.06094 5.23482 9.07969C4.79307 8.7992 4.43093 8.41869 4.18072 7.9721C3.93052 7.52552 3.80002 7.02675 3.80089 6.52031C3.80089 5.94844 3.95804 5.42344 4.23795 4.96875C5.82411 6.83437 8.2058 8.05313 10.8772 8.18438C10.4205 6.09844 12.0558 4.40625 14.0201 4.40625C14.9482 4.40625 15.783 4.77656 16.3723 5.37656C17.0991 5.24531 17.7964 4.9875 18.4152 4.63594C18.1746 5.34844 17.6688 5.94844 17.0009 6.32812C17.6491 6.2625 18.2777 6.08906 18.8571 5.85C18.4201 6.46406 17.8701 7.00781 17.2415 7.44375Z" fill="#CDCDCD"/>
</svg>
