<svg width="22" height="21" viewBox="0 0 22 21" fill="none" xmlns="http://www.w3.org/2000/svg">
<path d="M9.17321 7.97344L13.8482 10.5094L9.17321 13.0453V7.97344ZM22 2.25V18.75C22 19.9922 20.9442 21 19.6429 21H2.35714C1.0558 21 0 19.9922 0 18.75V2.25C0 1.00781 1.0558 0 2.35714 0H19.6429C20.9442 0 22 1.00781 22 2.25ZM19.9375 10.5141C19.9375 10.5141 19.9375 7.72031 19.5643 6.37969C19.358 5.63906 18.754 5.05781 17.983 4.86094C16.5933 4.5 11 4.5 11 4.5C11 4.5 5.4067 4.5 4.01696 4.86094C3.24598 5.05781 2.64196 5.63906 2.43571 6.37969C2.0625 7.71563 2.0625 10.5141 2.0625 10.5141C2.0625 10.5141 2.0625 13.3078 2.43571 14.6484C2.64196 15.3891 3.24598 15.9469 4.01696 16.1437C5.4067 16.5 11 16.5 11 16.5C11 16.5 16.5933 16.5 17.983 16.1391C18.754 15.9422 19.358 15.3844 19.5643 14.6437C19.9375 13.3078 19.9375 10.5141 19.9375 10.5141V10.5141Z" fill="#CDCDCD"/>
</svg>
